<?xml version="1.0" encoding="UTF-8"?>
<!DOCTYPE svg PUBLIC "-//W3C//DTD SVG 1.1//EN" "http://www.w3.org/Graphics/SVG/1.1/DTD/svg11.dtd">
<!-- Creator: CorelDRAW -->
<svg xmlns="http://www.w3.org/2000/svg" xml:space="preserve" width="2285px" height="634px" version="1.1" style="shape-rendering:geometricPrecision; text-rendering:geometricPrecision; image-rendering:optimizeQuality; fill-rule:evenodd; clip-rule:evenodd"
viewBox="0 0 2171.02 602.73"
 xmlns:xlink="http://www.w3.org/1999/xlink"
 xmlns:xodm="http://www.corel.com/coreldraw/odm/2003">
 <defs>
  <style type="text/css">
   <![CDATA[
    .fil3 {fill:#0B2B59}
    .fil4 {fill:#1093CF}
    .fil0 {fill:#0B2B59;fill-rule:nonzero}
    .fil2 {fill:#1093CF;fill-rule:nonzero}
    .fil5 {fill:#1093CF;fill-rule:nonzero}
    .fil1 {fill:#757575;fill-rule:nonzero}
   ]]>
  </style>
 </defs>
 <g id="Layer_x0020_1">
  <metadata id="CorelCorpID_0Corel-Layer"/>
  <g id="_1936511630912">
   <path class="fil0" d="M441.99 55.92c-3.06,-0.83 -6.13,-1.6 -9.22,-2.29 -6.36,-1.47 -12.78,-2.71 -19.25,-3.63 -2.58,-16.29 -6.08,-32.69 -10.54,-48.81 -8.81,-0.88 -17.67,-1.16 -26.49,-1.19 -6.91,15.73 -12.71,31.69 -17.42,47.85 -6.53,0.36 -13.02,1.21 -19.49,2.09 -6.46,0.96 -12.89,2.12 -19.25,3.61 -8.34,-14.44 -17.42,-28.08 -27.43,-41.75 -8.44,2.51 -16.86,5.18 -25.07,8.44 -0.83,17.03 -0.41,34.28 0.91,50.85 -5.85,2.9 -11.77,5.69 -17.4,9.02 -5.75,3.1 -11.21,6.72 -16.71,10.24 -12.79,-10.17 -26.53,-20.06 -40.66,-28.92 -7.06,5.32 -13.8,11.05 -20.39,16.94 5.61,16.37 11.95,31.96 19.4,47.13 -4.59,4.64 -8.79,9.66 -13.02,14.64 -4.09,5.09 -8.09,10.25 -11.79,15.64 -15.86,-5.03 -31.79,-9 -48.42,-12.35 -4.55,7.56 -8.9,15.25 -12.83,23.14 11,13.2 22.72,25.56 35.01,36.96 -2.53,6.03 -4.8,12.16 -6.84,18.37 -1.96,6.23 -3.96,12.46 -5.38,18.84 -16.54,1.04 -33.08,3.01 -49.58,5.96 -1.63,8.68 -2.88,17.46 -3.64,26.26 14.96,8.33 30.44,15.61 46,21.79 -0.07,6.53 -0.16,13.08 0.3,19.6 0.28,6.53 1.01,13.01 1.78,19.51 -14.95,6.96 -29.6,14.8 -44.06,23.53 1.75,8.63 3.68,17.22 6.12,25.69 16.95,2.34 34.07,3.55 50.74,3.75 2.28,6.11 4.6,12.23 7.35,18.16 2.56,6.02 5.62,11.79 8.67,17.57 -11.36,11.82 -22.46,24.56 -32.6,37.82 4.63,7.53 9.72,14.77 14.99,21.86 16.78,-4 32.96,-8.94 48.72,-14.93 4.19,5.02 8.8,9.65 13.39,14.3 4.65,4.59 9.47,9 14.48,13.21 -6.41,15.22 -11.86,30.74 -16.7,46.92 38.25,-8.85 75.31,-27.3 107.41,-55.89 -2,-0.79 -3.99,-1.62 -5.97,-2.47 -22.5,-9.73 -43.18,-23.74 -60.59,-40.96 -17.44,-17.2 -31.59,-37.6 -41.58,-59.91 -10.05,-22.26 -15.96,-46.72 -17.2,-71.11 -1.31,-24.42 1.95,-49.02 9.62,-72.29 7.62,-23.27 19.61,-45.18 35.18,-64.12 15.54,-18.97 34.57,-34.97 55.85,-46.97 21.25,-11.95 44.84,-20.19 69.2,-23.64 9.34,-1.37 18.75,-2.06 28.17,-2.09 20.03,-18.19 42.38,-33.85 66.23,-46.37z"/>
   <path class="fil1" d="M506.87 32.49c-7.47,-3.59 -15.04,-6.98 -22.77,-9.95 -8.36,8.34 -16.31,17.1 -23.8,26.06 15.12,-6.65 30.71,-12.06 46.57,-16.11z"/>
   <path class="fil2" d="M626.61 336.58c0.99,-6.46 1.41,-12.99 1.86,-19.51 15.88,-4.08 32,-9.09 47.59,-15.03 0.04,-8.84 -0.51,-17.67 -1.25,-26.47 -16.43,-5.4 -32.69,-9.72 -49.29,-12.91 -0.91,-6.47 -2.45,-12.82 -3.8,-19.21 -1.73,-6.3 -3.25,-12.67 -5.4,-18.84 13.55,-9.59 26.51,-19.95 39.05,-31.13 -3.2,-8.23 -6.71,-16.37 -10.71,-24.25 -17.11,0.77 -34.1,2.72 -50.58,5.63 -3.38,-5.58 -6.73,-11.2 -10.57,-16.5 -3.65,-5.42 -7.72,-10.54 -11.74,-15.68 8.96,-13.71 17.45,-28.22 25.04,-43.18 -5.98,-6.51 -12.29,-12.69 -18.74,-18.72 -15.83,7.14 -30.73,14.84 -45.16,23.68 -5.04,-4.14 -10.43,-7.86 -15.75,-11.63 -5.49,-3.56 -10.96,-7.12 -16.68,-10.29l0.2 -0.92c-18.55,9.57 -36.29,21.73 -52.71,36.58 13.47,5.32 26.38,12.1 38.38,20.22 20.32,13.75 38.06,31.25 51.98,51.33 13.95,20.08 24.04,42.72 29.91,66.63 5.71,23.94 7.07,48.7 3.83,72.93l0 0c-3.21,24.22 -10.99,47.89 -22.78,69.41 -11.79,21.51 -27.63,40.78 -46.34,56.52 -18.73,15.76 -40.32,27.94 -63.52,35.87 -20.63,7.15 -42.46,10.67 -64.15,10.73 -24.78,22.2 -53.05,40.51 -83.21,53.91 -0.01,12.33 0.51,24.68 1.52,37.14 8.51,2.38 17.11,4.49 25.81,6.04 9.67,-14.06 18.38,-28.93 25.97,-43.74 6.5,0.63 13,1.35 19.53,1.48 6.53,0.39 13.07,0.17 19.61,0.07 5.53,15.38 12.02,30.99 19.37,45.99 8.8,-0.82 17.52,-2.16 26.21,-3.67 3.83,-16.93 6.67,-33.45 8.31,-50.28 6.35,-1.59 12.59,-3.5 18.79,-5.59 6.15,-2.17 12.32,-4.38 18.28,-7.04 10.76,12.51 22.34,24.6 34.62,35.97 7.95,-3.87 15.63,-8.28 23.16,-12.9 -2.38,-17 -5.84,-33.65 -10.33,-49.86 5.33,-3.79 10.48,-7.82 15.47,-12.03 5.03,-4.18 9.82,-8.64 14.51,-13.18 14.55,7.74 29.66,14.72 45.33,20.97 5.9,-6.57 11.51,-13.37 16.87,-20.39 -8.55,-15.08 -17.58,-29.2 -27.7,-42.76 3.63,-5.43 6.87,-11.1 10.12,-16.78 3.02,-5.78 6.11,-11.55 8.71,-17.54 16.5,2.04 32.97,3.07 49.85,3.27 3.13,-8.24 6.02,-16.61 8.39,-25.11 -13.08,-10.93 -27.14,-20.99 -41.14,-29.91 1.23,-6.41 2.5,-12.82 3.28,-19.32z"/>
   <path class="fil3" d="M264.61 179.6l39.64 131.76 107.04 -100.18 -35.36 -3.77c72,-180.1 262.69,-212.2 376.63,-123.9 -145.24,-155.25 -386.33,-59.15 -453.5,111.77l-34.45 -15.68z"/>
   <path class="fil4" d="M487.95 421.66l-39.64 -131.76 -107.04 100.18 35.36 3.77c-72,180.1 -262.69,212.2 -376.63,123.9 145.24,155.25 386.33,59.15 453.5,-111.77l34.45 15.68z"/>
   <path class="fil2" d="M863.38 358.61l-97.1 0c-41.64,0 -55.47,-20.63 -41.57,-61.85l6.26 -18.52c14.47,-42.91 42.49,-64.33 84.13,-64.33l97.11 0c41.23,0.42 54.63,21.84 40.09,64.33l-6.04 17.89c-14.05,41.64 -41.66,62.48 -82.88,62.48zm36.81 -108.92l-97.21 0c-17.74,0 -29.81,9.49 -36.22,28.49l-5.96 17.68c-6.07,18 -0.31,27.18 17.28,27.6l97.21 0c17.74,0 29.81,-9.18 36.23,-27.6l5.65 -17.68c6.41,-19 0.75,-28.49 -16.98,-28.49z"/>
   <path id="_1" class="fil2" d="M987.14 358.61c-23.49,0 -31.09,-11.71 -22.76,-35.15l158.32 0c17.87,-0.42 27.79,-3.53 29.75,-9.34 2.1,-6.22 -5.72,-9.34 -23.45,-9.34l-96.47 0c-42.27,0 -57.92,-15.25 -47.05,-45.75 9.78,-30.08 35.44,-45.12 77.08,-45.12l158.85 0c-7.42,23.85 -23.16,35.78 -47.22,35.78l-123.7 0c-17.74,0 -27.65,3.11 -29.75,9.34 -2.25,6.65 5.92,9.97 24.5,9.97l95.83 0c41.59,0 57.31,15.04 47.16,45.12 -10.01,29.66 -35.81,44.49 -77.39,44.49l-123.7 0z"/>
   <path id="_2" class="fil2" d="M1297.76 359.56c-24.77,-0.42 -33.11,-13.24 -25.03,-38.42l24.11 -71.45 -61.22 0c8.05,-23.86 21.57,-35.78 40.51,-35.78l32.78 0 27.54 -81.65c25.06,-0.42 34.11,10.29 27.16,32.14l-16.7 49.51 83.8 0c-8.05,23.85 -21.57,35.78 -40.52,35.78l-55.36 0 -18.82 55.78c-3.89,10.29 -0.29,15.57 10.77,15.78l62.44 0c-8.41,24.91 -24.54,37.36 -48.45,37.36l-43.01 0.95z"/>
   <path id="_3" class="fil2" d="M1601.21 358.61l-123.7 0c-41.58,0 -55.41,-20.63 -41.51,-61.85l6.47 -19.16c14.47,-42.9 42.49,-64.33 84.13,-64.33l157.64 0 -19.25 57.05c-7.53,22.32 -22.6,33.51 -45.19,33.51l-106.39 0c-13.42,-0.42 -16.81,-11.19 -10.11,-32.3l106.4 0c13.84,0.43 23.39,-7.07 28.59,-22.48l-123.81 0c-17.73,0 -29.81,9.5 -36.22,28.5l-6.17 18.31c-6.08,18 -0.31,27.18 17.28,27.6l157.06 0c-7.49,23.44 -22.58,35.15 -45.22,35.15z"/>
   <path id="_4" class="fil2" d="M1848.62 358.61l-123.7 0c-41.59,0 -55.42,-20.63 -41.51,-61.85l6.25 -18.52c14.47,-42.91 42.49,-64.33 84.08,-64.33l158.96 0c-7.47,23.85 -23.21,35.78 -47.33,35.78l-123.7 0c-17.73,0 -29.8,9.49 -36.21,28.49l-5.97 17.68c-6.07,18 -0.3,27.18 17.29,27.6l158.32 0c-7.49,23.44 -23,35.15 -46.48,35.15z"/>
   <path id="_5" class="fil2" d="M1921.86 323.31l64.77 -191.05c23.64,0 31.78,10.93 24.41,32.78l-16.49 48.87 124.91 0c38.79,0 51.56,21.42 38.34,64.22l-27.33 81.01c-22.45,-0.42 -30.04,-12.03 -22.73,-34.94l15.54 -46.07c6.4,-18.95 0.73,-28.44 -17,-28.44l-123.81 0 -36.92 109.45c-23.86,0 -31.76,-11.93 -23.69,-35.83z"/>
   <path class="fil0" d="M714.14 474.23l15.25 -45.19 77.9 0c16.69,0 22.31,8.85 16.85,26.53l-11.29 33.46c-9.62,-0.18 -12.92,-4.97 -9.91,-14.43l6.42 -19.03c2.64,-7.82 0.31,-11.75 -7.04,-11.75l-20.97 0c1.65,0.42 1.84,2.38 0.57,5.89l-13.27 39.32c-9.62,-0.18 -12.93,-4.97 -9.91,-14.43l6.42 -19.03c2.64,-7.82 0.3,-11.75 -7.04,-11.75l-18.94 0 -15.26 45.21c-9.85,0 -13.11,-4.93 -9.78,-14.8z"/>
   <path id="_1_0" class="fil0" d="M879.04 488.81l-29.12 0c-17.18,0 -22.89,-8.52 -17.15,-25.55l2.58 -7.65c5.98,-17.72 17.56,-26.57 34.75,-26.57l65.63 0 -20.16 59.77 -14.52 0 15.18 -44.99 -51.13 0c-7.33,0 -12.31,3.93 -14.96,11.77l-2.46 7.3c-2.51,7.44 -0.13,11.23 7.13,11.4l29.39 0c9.64,-0.08 12.78,4.76 9.4,14.52l-14.56 0z"/>
   <path id="_2_1" class="fil0" d="M1003.19 488.81l-51.09 0c-17.18,0 -22.89,-8.52 -17.15,-25.55l2.59 -7.65c5.97,-17.72 17.55,-26.57 34.72,-26.57l65.66 0c-3.09,9.86 -9.59,14.78 -19.55,14.78l-51.09 0c-7.33,0 -12.31,3.93 -14.96,11.77l-2.46 7.3c-2.51,7.44 -0.13,11.23 7.14,11.4l65.39 0c-3.1,9.68 -9.5,14.52 -19.2,14.52z"/>
   <path id="_3_2" class="fil0" d="M1033.44 474.23l26.75 -78.91c9.77,0 13.13,4.52 10.08,13.54l-6.81 20.18 51.59 0c16.02,0 21.3,8.85 15.84,26.53l-11.29 33.46c-9.27,-0.18 -12.41,-4.97 -9.39,-14.43l6.42 -19.03c2.64,-7.82 0.3,-11.75 -7.02,-11.75l-51.14 0 -15.25 45.21c-9.85,0 -13.11,-4.93 -9.78,-14.8z"/>
   <path id="_4_3" class="fil0" d="M1135.61 474.25l15.47 -45.47 14.56 0.26 -20.25 60.03c-9.85,0 -13.11,-4.95 -9.78,-14.82zm17.2 -51.09l6.33 -18.38c9.78,0 13.17,4.52 10.12,13.54l-1.63 4.84 -14.82 0z"/>
   <path id="_5_4" class="fil0" d="M1161.16 474.23l15.25 -45.19 65.89 0c16.68,0 22.3,8.85 16.84,26.53l-11.29 33.46c-9.27,-0.18 -12.41,-4.97 -9.39,-14.43l6.42 -19.03c2.64,-7.82 0.3,-11.75 -7.02,-11.75l-51.66 0 -15.25 45.21c-9.85,0 -13.12,-4.93 -9.79,-14.8z"/>
   <path id="_6" class="fil0" d="M1335.28 488.81l-51.09 0c-17.18,0 -22.89,-8.52 -17.14,-25.55l2.66 -7.91c5.98,-17.72 17.56,-26.57 34.76,-26.57l65.1 0 -7.95 23.56c-3.11,9.22 -9.33,13.85 -18.66,13.85l-43.94 0c-5.55,-0.18 -6.94,-4.63 -4.18,-13.34l43.94 0c5.72,0.17 9.67,-2.92 11.81,-9.29l-51.13 0c-7.33,0 -12.31,3.92 -14.96,11.77l-2.55 7.56c-2.51,7.44 -0.13,11.23 7.14,11.4l64.86 0c-3.09,9.68 -9.32,14.52 -18.67,14.52z"/>
   <path id="_7" class="fil0" d="M1375.43 488.81c-9.7,0 -12.84,-4.84 -9.4,-14.52l65.39 0c7.38,-0.17 11.48,-1.46 12.29,-3.85 0.86,-2.58 -2.36,-3.86 -9.69,-3.86l-39.84 0c-17.46,0 -23.92,-6.3 -19.43,-18.9 4.04,-12.42 14.63,-18.64 31.83,-18.64l65.61 0c-3.06,9.86 -9.57,14.78 -19.5,14.78l-51.1 0c-7.32,0 -11.42,1.29 -12.28,3.86 -0.93,2.75 2.44,4.12 10.12,4.12l39.58 0c17.17,0 23.67,6.21 19.47,18.64 -4.13,12.25 -14.78,18.37 -31.96,18.37l-51.09 0z"/>
   <path id="_8" class="fil0" d="M1564.97 488.81l-14.56 0c3.21,-9.76 9.62,-14.6 19.2,-14.52l29.38 0c7.38,-0.17 12.33,-3.96 14.83,-11.4l2.47 -7.3c2.64,-7.84 0.3,-11.77 -7.02,-11.77l-51.13 0 -20.26 60.03c-2.98,8.85 -9.37,13.45 -19.17,13.8l29.9 -88.61 65.63 0c17.19,0 22.79,8.85 16.82,26.57l-2.58 7.65c-5.75,17.03 -17.21,25.55 -34.39,25.55l-29.12 0z"/>
   <path id="_9" class="fil0" d="M1650.66 429.04l16.21 0 11.77 37.8 37.45 -38.32 17.37 0 -52.49 54.17c-7.85,8.08 -12.45,8.08 -13.8,0l-16.51 -53.65z"/>
   <path id="_10" class="fil0" d="M1760.7 489.2c-10.23,-0.17 -13.67,-5.47 -10.34,-15.87l9.96 -29.51 -25.28 0c3.32,-9.85 8.91,-14.78 16.73,-14.78l13.54 0 11.37 -33.72c10.35,-0.17 14.09,4.26 11.22,13.28l-6.9 20.44 34.61 0c-3.32,9.86 -8.91,14.78 -16.73,14.78l-22.87 0 -7.77 23.04c-1.61,4.25 -0.12,6.43 4.45,6.52l25.79 0c-3.48,10.29 -10.14,15.43 -20.01,15.43l-17.77 0.39z"/>
   <path id="_11" class="fil0" d="M1920.71 395.87l-24.31 72.04c-1.37,4.07 -0.11,6.12 3.82,6.12l9.35 0.26c6.6,0.16 8.18,5.02 4.8,14.52l-25.02 0c-9.85,0 -13.18,-4.75 -9.96,-14.28l22.53 -66.78c2.76,-7.91 9.02,-11.88 18.79,-11.88z"/>
   <path id="_12" class="fil0" d="M1966.59 489.2c-10.23,-0.17 -13.67,-5.47 -10.34,-15.87l9.96 -29.51 -25.28 0c3.32,-9.85 8.91,-14.78 16.73,-14.78l13.54 0 11.37 -33.72c10.35,-0.17 14.09,4.26 11.22,13.28l-6.9 20.44 34.61 0c-3.32,9.86 -8.91,14.78 -16.73,14.78l-22.87 0 -7.77 23.04c-1.61,4.25 -0.12,6.43 4.45,6.52l25.79 0c-3.48,10.29 -10.14,15.43 -20.01,15.43l-17.77 0.39z"/>
   <path id="_13" class="fil0" d="M2106.31 489.33l-65.92 0c-17.35,0 -22.91,-8.69 -16.7,-26.07l2.58 -7.65c6.33,-17.72 17.81,-26.57 34.47,-26.57l45.46 0c-3.26,9.68 -8.5,14.61 -15.71,14.78l-34.74 0c-7.15,0 -12.05,3.93 -14.69,11.77l-2.47 7.3c-2.56,7.61 -0.3,11.49 6.79,11.67l51.09 0 10.34 -30.65 5 -14.82 6.81 -20.19c3.05,-9.02 9.54,-13.53 19.52,-13.53l-31.83 93.96z"/>
   <path class="fil5" d="M1127.66 545.48c0,-0.7 0.35,-1.04 1.05,-1.04 2.1,0 3.73,1.28 4.9,3.85 1.4,2.21 2.1,6.06 2.1,11.55 0,8.4 -3.68,17 -11.03,25.82 -7.35,8.81 -15.28,13.21 -23.8,13.21 -4.09,0 -7.38,-1.98 -9.89,-5.95 -2.51,-3.97 -3.76,-8.05 -3.76,-12.25 0,-4.2 0.93,-9.34 2.8,-15.41 -3.39,3.39 -8.35,9.19 -14.88,17.42 -6.54,8.23 -10.97,14.26 -13.3,18.12 -1.17,0 -2.78,-0.65 -4.82,-1.93 -2.04,-1.28 -3.06,-2.51 -3.06,-3.68 0,-2.8 3.56,-12.04 10.68,-27.74 7.11,-15.69 12.42,-23.54 15.93,-23.54 1.28,0 2.45,0.61 3.5,1.84 1.05,1.22 1.57,2.16 1.57,2.8 0,0.64 -3.18,6.65 -9.54,18.03 -6.36,11.37 -9.48,18.23 -9.36,20.56 11.08,-13.42 16.98,-20.53 17.67,-21.35 11.32,-13.07 18.73,-19.6 22.23,-19.6 1.29,0 2.54,0.55 3.77,1.66 1.22,1.11 1.84,2.1 1.84,2.97 0,0.88 -1.64,3.48 -4.91,7.79 -3.26,4.32 -6.03,8.55 -8.31,12.69 -2.27,4.14 -3.41,8.32 -3.41,12.52 0,7.35 2.45,11.02 7.35,11.02l2.27 0c6.31,0 12.05,-4.81 17.25,-14.44 5.19,-9.62 7.78,-17.35 7.78,-23.19 0,-4.67 -0.75,-8.28 -2.27,-10.85 -0.23,-0.23 -0.35,-0.52 -0.35,-0.88z"/>
   <path id="_1_5" class="fil5" d="M1144.81 602.72c-1.28,0 -2.45,-0.17 -3.5,-0.52 -7.47,-2.1 -11.2,-6.31 -11.2,-12.61 0,-8.16 5.13,-17.62 15.4,-28.35 10.27,-10.74 19.49,-16.11 27.66,-16.11 2.68,0 4.87,0.73 6.56,2.19 1.69,1.46 2.54,3.24 2.54,5.34 0,6.54 -4.93,12.78 -14.79,18.73 -9.86,5.95 -17.88,8.93 -24.07,8.93 -0.93,0 -1.75,-0.12 -2.45,-0.35 -1.75,3.15 -2.63,6.47 -2.63,9.97 0,6.07 2.89,9.1 8.67,9.1 5.78,0 13.27,-3.9 22.49,-11.72 7.12,-5.72 13.19,-11.79 18.2,-18.21 1.05,-1.4 1.96,-2.1 2.72,-2.1 0.76,0 1.14,0.35 1.14,1.05 0,0.7 -0.47,1.7 -1.41,2.98 -6.3,8.29 -13.88,15.64 -22.75,22.05 -8.87,6.42 -16.39,9.63 -22.58,9.63zm33.08 -50.41c0,-1.4 -1.49,-2.1 -4.46,-2.1 -2.98,0 -7.21,2.28 -12.69,6.83 -7.35,6.07 -13.07,12.42 -17.15,19.08 0.7,0.23 1.45,0.35 2.27,0.35 4.44,0 10.36,-2.37 17.77,-7.09 7.41,-4.73 12.04,-9.89 13.91,-15.49 0.24,-0.59 0.35,-1.11 0.35,-1.58z"/>
   <path id="_2_6" class="fil5" d="M1299.19 598.35c-7.94,0 -11.9,-3.68 -11.9,-11.03 0,-4.2 1.86,-9.95 5.6,-17.24 3.73,-7.3 7.64,-13.45 11.73,-18.47 -7.24,3.5 -15.58,9.83 -25.03,18.99 -9.46,9.16 -16.05,18.76 -19.78,28.79 -0.59,0.94 -1.58,1.41 -2.98,1.41 -2.8,0 -4.2,-1.58 -4.2,-4.73 1.17,-6.42 3.79,-13.77 7.88,-22.05 1.28,-2.69 5.07,-10.51 11.37,-23.46 -9.1,5.95 -16.83,12.34 -23.19,19.17 -6.36,6.82 -12.25,13.68 -17.68,20.56 -5.42,6.89 -8.48,10.33 -9.18,10.33 -1.52,0 -2.83,-0.7 -3.94,-2.1 -1.11,-1.4 -1.67,-2.8 -1.67,-4.2 0,-2.1 3.04,-9.8 9.11,-23.11l-10.51 11.03c-2.56,2.57 -4.17,3.85 -4.81,3.85 -0.64,0 -0.96,-0.38 -0.96,-1.13 0,-0.76 0.46,-1.61 1.4,-2.54 4.32,-4.32 8.17,-8.64 11.55,-12.96 3.38,-4.31 8.99,-12.01 16.8,-23.1 1.29,-1.75 3.1,-2.62 5.43,-2.62 2.33,0 3.5,1.1 3.5,3.32 0,0.82 -3.09,6.51 -9.28,17.07 -6.18,10.56 -9.62,17.18 -10.32,19.86 4.78,-5.25 11.96,-12.31 21.53,-21.18 14.35,-13.3 23.8,-19.95 28.35,-19.95 1.4,0 2.69,0.41 3.85,1.23 1.17,0.81 1.75,1.72 1.75,2.71 0,0.99 -2.27,5.39 -6.82,13.21 -4.44,8.05 -6.89,12.84 -7.36,14.36 12.96,-10.86 19.43,-16.34 19.43,-16.46 10.97,-8.52 18.85,-12.78 23.63,-12.78 1.4,0 2.72,0.44 3.94,1.32 1.23,0.87 1.84,1.89 1.84,3.06 0,0.23 -3.79,5.16 -11.38,14.79 -7.58,9.63 -11.84,17.53 -12.78,23.72 -0.23,2.1 0.18,3.67 1.23,4.72 1.05,1.05 2.95,1.58 5.69,1.58 2.74,0 6.77,-1.9 12.07,-5.69 5.31,-3.79 10.71,-8.9 16.19,-15.31 2.11,-2.34 3.53,-3.5 4.29,-3.5 0.76,0 1.14,0.29 1.14,0.87 0,0.82 -0.52,1.75 -1.57,2.8 -5.72,6.88 -11.88,12.75 -18.47,17.59 -6.59,4.84 -11.76,7.27 -15.49,7.27z"/>
   <path id="_3_7" class="fil5" d="M1384.26 548.11l2.45 -0.52c1.28,0 2.5,0.52 3.67,1.57 1.17,1.05 1.75,1.87 1.75,2.45 0,0.58 -3.62,6.21 -10.85,16.89 -7.24,10.68 -10.85,18.12 -10.85,22.32 0,0.35 0.06,0.7 0.17,1.05 0.59,2.68 1.87,4.02 3.85,4.02 6.07,0 17.16,-10.03 33.26,-30.1 0.35,-0.47 0.76,-0.7 1.22,-0.7 0.47,0 0.7,0.44 0.7,1.31 0,0.88 -0.52,2.01 -1.57,3.42 -14.94,19.95 -26.31,29.92 -34.13,29.92 -1.05,0 -2.04,-0.17 -2.98,-0.52 -5.13,-1.98 -7.7,-5.83 -7.7,-11.55 0,-1.99 0.23,-3.97 0.7,-5.95l-10.85 10.5c-6.88,6.07 -11.87,9.1 -14.97,9.1 -3.09,0 -6.03,-0.99 -8.84,-2.97 -3.15,-2.34 -4.72,-5.43 -4.72,-9.28 0,-8.52 5.95,-18.7 17.85,-30.55 11.9,-11.84 22.82,-17.76 32.73,-17.76 3.85,0 6.42,1.34 7.7,4.02 0.35,0.94 0.65,1.73 0.88,2.37 0.23,0.64 0.41,0.96 0.53,0.96zm-52.34 43.06c0,4.2 1.46,6.3 4.38,6.3 6.76,0 15.98,-7.41 27.65,-22.23l18.55 -25.55c-0.93,-1.64 -2.45,-2.45 -4.55,-2.45 -7.11,0 -16.57,5.51 -28.35,16.54 -11.79,11.02 -17.68,20.15 -17.68,27.39z"/>
   <path id="_4_8" class="fil5" d="M1433.96 602.55c-9.21,0 -17.03,-7.3 -23.45,-21.88 -1.63,2.45 -5.31,9.33 -11.03,20.65 -4.2,-1.63 -6.3,-3.85 -6.3,-6.65 0,-5.02 7.53,-18.79 22.58,-41.31 15.05,-22.52 25.38,-35.76 30.98,-39.73 0.47,-0.35 1.4,-0.53 2.8,-0.53 3.62,0 5.43,0.94 5.43,2.81 0,0.93 -4.06,6.18 -12.17,15.75 -8.11,9.57 -12.63,15.34 -13.56,17.33 10.62,-5.49 19.08,-8.23 25.38,-8.23 3.61,0 6.71,1.46 9.27,4.37 2.46,2.46 3.68,4.96 3.68,7.53 0,0.35 0,0.7 0,1.05 -0.93,6.65 -5.6,12.14 -14,16.46 -6.77,3.61 -13.07,5.42 -18.91,5.42 -5.83,0 -9.91,-0.76 -12.25,-2.27 -0.7,-0.12 -1.25,0.05 -1.66,0.52 -0.41,0.47 -0.5,1.05 -0.26,1.75 3.26,14.47 8.69,21.7 16.27,21.7 3.97,0 9.08,-2.21 15.32,-6.65 6.24,-4.43 12.75,-10.67 19.52,-18.72 0.81,-0.82 1.54,-1.23 2.18,-1.23 0.65,0 0.97,0.32 0.97,0.96 0,0.64 -0.41,1.55 -1.23,2.72 -6.3,7.7 -12.25,13.76 -17.85,18.2 -8.52,6.65 -15.76,9.98 -21.71,9.98zm25.21 -53.56c0,-0.94 -0.53,-1.87 -1.58,-2.8 -1.05,-0.94 -2.16,-1.41 -3.32,-1.41 -6.3,0 -13.86,2.63 -22.67,7.88 -8.81,5.25 -14.21,11.2 -16.19,17.85 1.05,0 3.85,0.18 8.4,0.53 5.25,0 12.14,-2.16 20.66,-6.48 9.8,-4.9 14.7,-10.09 14.7,-15.57z"/>
   <path id="_5_9" class="fil5" d="M1475.97 602.72c-1.28,0 -2.45,-0.17 -3.5,-0.52 -7.47,-2.1 -11.2,-6.31 -11.2,-12.61 0,-8.16 5.13,-17.62 15.4,-28.35 10.27,-10.74 19.49,-16.11 27.66,-16.11 2.68,0 4.87,0.73 6.56,2.19 1.69,1.46 2.54,3.24 2.54,5.34 0,6.54 -4.93,12.78 -14.79,18.73 -9.86,5.95 -17.88,8.93 -24.07,8.93 -0.93,0 -1.75,-0.12 -2.45,-0.35 -1.75,3.15 -2.63,6.47 -2.63,9.97 0,6.07 2.89,9.1 8.67,9.1 5.78,0 13.27,-3.9 22.49,-11.72 7.12,-5.72 13.19,-11.79 18.2,-18.21 1.05,-1.4 1.96,-2.1 2.72,-2.1 0.76,0 1.14,0.35 1.14,1.05 0,0.7 -0.47,1.7 -1.41,2.98 -6.3,8.29 -13.88,15.64 -22.75,22.05 -8.87,6.42 -16.39,9.63 -22.58,9.63zm33.08 -50.41c0,-1.4 -1.49,-2.1 -4.46,-2.1 -2.98,0 -7.21,2.28 -12.69,6.83 -7.35,6.07 -13.07,12.42 -17.15,19.08 0.7,0.23 1.45,0.35 2.27,0.35 4.43,0 10.36,-2.37 17.77,-7.09 7.41,-4.73 12.04,-9.89 13.91,-15.49 0.24,-0.59 0.35,-1.11 0.35,-1.58z"/>
   <path id="_6_10" class="fil5" d="M1630.35 598.35c-7.94,0 -11.9,-3.68 -11.9,-11.03 0,-4.2 1.86,-9.95 5.6,-17.24 3.73,-7.3 7.64,-13.45 11.73,-18.47 -7.24,3.5 -15.58,9.83 -25.03,18.99 -9.46,9.16 -16.05,18.76 -19.78,28.79 -0.59,0.94 -1.58,1.41 -2.98,1.41 -2.8,0 -4.2,-1.58 -4.2,-4.73 1.17,-6.42 3.79,-13.77 7.88,-22.05 1.28,-2.69 5.07,-10.51 11.37,-23.46 -9.1,5.95 -16.83,12.34 -23.19,19.17 -6.36,6.82 -12.25,13.68 -17.68,20.56 -5.42,6.89 -8.48,10.33 -9.18,10.33 -1.52,0 -2.83,-0.7 -3.94,-2.1 -1.11,-1.4 -1.67,-2.8 -1.67,-4.2 0,-2.1 3.04,-9.8 9.11,-23.11l-10.51 11.03c-2.56,2.57 -4.17,3.85 -4.81,3.85 -0.64,0 -0.96,-0.38 -0.96,-1.13 0,-0.76 0.46,-1.61 1.4,-2.54 4.32,-4.32 8.17,-8.64 11.55,-12.96 3.38,-4.31 8.99,-12.01 16.8,-23.1 1.29,-1.75 3.1,-2.62 5.43,-2.62 2.33,0 3.5,1.1 3.5,3.32 0,0.82 -3.09,6.51 -9.28,17.07 -6.18,10.56 -9.62,17.18 -10.32,19.86 4.78,-5.25 11.96,-12.31 21.53,-21.18 14.35,-13.3 23.8,-19.95 28.35,-19.95 1.4,0 2.68,0.41 3.85,1.23 1.17,0.81 1.75,1.72 1.75,2.71 0,0.99 -2.27,5.39 -6.82,13.21 -4.44,8.05 -6.89,12.84 -7.36,14.36 12.96,-10.86 19.43,-16.34 19.43,-16.46 10.97,-8.52 18.85,-12.78 23.63,-12.78 1.4,0 2.72,0.44 3.94,1.32 1.23,0.87 1.84,1.89 1.84,3.06 0,0.23 -3.79,5.16 -11.38,14.79 -7.58,9.63 -11.84,17.53 -12.78,23.72 -0.23,2.1 0.18,3.67 1.23,4.72 1.05,1.05 2.95,1.58 5.69,1.58 2.74,0 6.77,-1.9 12.07,-5.69 5.31,-3.79 10.71,-8.9 16.19,-15.31 2.11,-2.34 3.53,-3.5 4.29,-3.5 0.76,0 1.14,0.29 1.14,0.87 0,0.82 -0.52,1.75 -1.57,2.8 -5.72,6.88 -11.88,12.75 -18.47,17.59 -6.59,4.84 -11.76,7.27 -15.49,7.27z"/>
   <path id="_7_11" class="fil5" d="M1715.42 548.11l2.45 -0.52c1.28,0 2.5,0.52 3.67,1.57 1.17,1.05 1.75,1.87 1.75,2.45 0,0.58 -3.62,6.21 -10.85,16.89 -7.24,10.68 -10.85,18.12 -10.85,22.32 0,0.35 0.06,0.7 0.17,1.05 0.59,2.68 1.87,4.02 3.85,4.02 6.07,0 17.16,-10.03 33.26,-30.1 0.35,-0.47 0.76,-0.7 1.22,-0.7 0.47,0 0.7,0.44 0.7,1.31 0,0.88 -0.52,2.01 -1.57,3.42 -14.94,19.95 -26.31,29.92 -34.13,29.92 -1.05,0 -2.04,-0.17 -2.98,-0.52 -5.13,-1.98 -7.7,-5.83 -7.7,-11.55 0,-1.99 0.23,-3.97 0.7,-5.95l-10.85 10.5c-6.89,6.07 -11.87,9.1 -14.97,9.1 -3.09,0 -6.03,-0.99 -8.84,-2.97 -3.15,-2.34 -4.72,-5.43 -4.72,-9.28 0,-8.52 5.95,-18.7 17.85,-30.55 11.9,-11.84 22.81,-17.76 32.73,-17.76 3.85,0 6.42,1.34 7.7,4.02 0.35,0.94 0.65,1.73 0.88,2.37 0.23,0.64 0.41,0.96 0.53,0.96zm-52.34 43.06c0,4.2 1.46,6.3 4.38,6.3 6.76,0 15.98,-7.41 27.65,-22.23l18.55 -25.55c-0.93,-1.64 -2.45,-2.45 -4.55,-2.45 -7.11,0 -16.57,5.51 -28.35,16.54 -11.79,11.02 -17.68,20.15 -17.68,27.39z"/>
   <path id="_8_12" class="fil5" d="M1742.54 602.72c-1.28,0 -2.45,-0.17 -3.5,-0.52 -7.46,-2.1 -11.2,-6.31 -11.2,-12.61 0,-8.16 5.14,-17.62 15.4,-28.35 10.27,-10.74 19.49,-16.11 27.66,-16.11 2.68,0 4.87,0.73 6.56,2.19 1.69,1.46 2.54,3.45 2.54,5.95 0,2.51 -0.76,5.14 -2.27,7.88 -1.52,2.74 -3.8,4.11 -6.83,4.11 -3.03,0 -4.55,-0.93 -4.55,-2.8 0,-1.28 0.79,-3.23 2.36,-5.86 1.58,-2.63 2.36,-4.03 2.36,-4.2 0,-0.18 -0.17,-0.26 -0.52,-0.26 -3.27,0.35 -7.73,2.68 -13.39,7 -5.66,4.32 -9.54,7.93 -11.64,10.85l-6.83 9.98c-1.16,1.86 -2.01,4.08 -2.53,6.65 -0.53,2.57 -0.79,4.49 -0.79,5.77 0,1.29 0.73,2.75 2.19,4.38 1.45,1.63 3.53,2.45 6.21,2.45 5.83,0 13.07,-3.41 21.7,-10.24 8.64,-6.83 15.29,-13.33 19.96,-19.52 0.58,-0.7 1.28,-1.05 2.1,-1.05 0.81,0 1.22,0.24 1.22,0.7 0,0.47 -0.29,1.06 -0.87,1.75 -6.42,8.52 -14.09,15.96 -23.02,22.32 -8.93,6.36 -16.36,9.54 -22.32,9.54z"/>
   <path id="_9_13" class="fil5" d="M1820.26 599.74c-6.89,0 -10.33,-4.02 -10.33,-12.07 0,-4.55 1.61,-9.6 4.81,-15.14 3.21,-5.54 7.15,-12.05 11.82,-19.52 -14.94,7.47 -28.47,18.5 -40.61,33.08 -6.77,10.15 -10.73,15.23 -11.9,15.23 -3.38,0 -5.08,-0.99 -5.08,-2.97 0,-1.06 0.7,-2.92 2.1,-5.61 11.32,-20.18 19.9,-34.94 25.73,-44.28 13.89,-22.29 23.69,-34.36 29.41,-36.23 0.23,-0.12 0.47,-0.18 0.7,-0.18 1.52,0 2.57,1.23 3.15,3.68 -0.35,2.45 -6.42,11.32 -18.2,26.6 -12.26,15.52 -19.2,25.68 -20.83,30.46 4.32,-3.15 11.84,-8.46 22.58,-15.93 11.55,-8.05 19.19,-12.08 22.93,-12.08 3.73,0 5.6,1.46 5.6,4.38 0,0.47 -0.03,0.79 -0.09,0.96 -0.06,0.18 -4.11,5.69 -12.17,16.54 -8.05,10.86 -12.07,18.85 -12.07,23.98 0,2.69 0.99,4.03 2.97,4.03 6.3,-0.23 15.76,-7.82 28.36,-22.75 1.05,-1.06 1.84,-1.58 2.36,-1.58 0.53,0 0.79,0.35 0.79,1.05 0,2.33 -5.78,8.63 -17.33,18.9 -7.23,6.3 -12.13,9.45 -14.7,9.45z"/>
   <path id="_10_14" class="fil5" d="M1882.57 529.03c1.75,0 3.41,0.56 4.99,1.66 1.57,1.11 2.36,2.43 2.36,3.94 0,1.52 -0.73,2.83 -2.19,3.94 -1.46,1.11 -3.06,1.66 -4.81,1.66 -1.75,0 -3.36,-0.64 -4.81,-1.92 -1.46,-1.28 -2.19,-2.74 -2.19,-4.38 0,-3.26 2.21,-4.9 6.65,-4.9zm-31.68 73.34c-5.95,0 -8.93,-3.85 -8.93,-11.55 0,-6.3 3.44,-15.02 10.33,-26.17 6.88,-11.14 12.43,-16.77 16.63,-16.89 1.16,0 2.48,0.47 3.93,1.4 1.46,0.93 2.19,1.87 2.19,2.8 -0.58,0.82 -1.28,1.72 -2.1,2.71 -0.81,1 -1.69,2.08 -2.62,3.24 -0.94,1.17 -2.22,2.83 -3.85,4.99 -1.64,2.16 -3.21,4.23 -4.73,6.21 -8.75,11.32 -13.13,19.11 -13.13,23.37 0,4.26 1.46,6.39 4.38,6.39 2.45,0 5.78,-1.34 9.98,-4.03 9.8,-6.06 17.56,-12.71 23.27,-19.95 2.1,-2.68 3.53,-4.03 4.29,-4.03 0.76,0 1.14,0.47 1.14,1.41 0,0.93 -1.34,2.8 -4.03,5.6 -2.68,2.8 -4.81,5.01 -6.38,6.65 -1.58,1.63 -2.66,2.71 -3.24,3.24 -0.58,0.52 -1.66,1.51 -3.24,2.97 -1.58,1.46 -2.77,2.48 -3.59,3.06 -0.81,0.59 -1.98,1.46 -3.5,2.63 -1.52,1.17 -2.86,2.01 -4.02,2.54 -1.17,0.52 -2.51,1.14 -4.03,1.84 -2.45,1.05 -5.37,1.57 -8.75,1.57z"/>
   <path id="_11_15" class="fil5" d="M1912.32 545.13c3.16,0 4.73,1.23 4.73,3.68 0,0.7 -0.17,1.4 -0.52,2.1 -10.51,14.59 -16.81,25.61 -18.91,33.08 27.19,-27.19 43.7,-40.78 49.54,-40.78 0.58,-0.12 1.11,-0.18 1.57,-0.18 3.27,0 4.9,1.46 4.9,4.38 0,0.58 -0.11,1.17 -0.35,1.75 -0.23,0.58 -2.56,3.73 -7,9.45 -5.13,6.07 -9.48,11.9 -13.04,17.51 -3.56,5.6 -5.34,10.26 -5.34,14 0,3.73 0.82,5.6 2.45,5.6 5.14,0 14.06,-7.06 26.78,-21.18 0.24,-0.23 0.65,-0.76 1.23,-1.57 1.75,-2.11 2.8,-3.15 3.15,-3.15 0.35,0 0.52,0.58 0.52,1.74 0,1.17 -0.81,2.69 -2.45,4.56 -14.47,16.45 -24.73,24.68 -30.8,24.68 -5.72,0 -8.58,-3.16 -8.58,-9.46 0,-6.3 2.34,-13.53 7,-21.7l11.21 -18.2c-7.94,5.83 -15,12.22 -21.18,19.16 -6.19,6.94 -11.82,13.68 -16.89,20.22 -5.08,6.53 -8.03,9.8 -8.84,9.8 -1.75,0 -3.12,-0.73 -4.12,-2.19 -0.99,-1.46 -1.49,-3.26 -1.49,-5.42 0,-2.16 0.76,-5.05 2.28,-8.67 1.52,-3.62 3.44,-7.99 5.78,-13.13l-10.51 11.03c-2.56,2.57 -4.17,3.85 -4.81,3.85 -0.64,0 -0.96,-0.38 -0.96,-1.13 0,-0.76 0.47,-1.61 1.4,-2.54 4.32,-4.32 8.05,-8.46 11.2,-12.43 3.03,-3.97 9.28,-11.55 18.73,-22.75 1.05,-1.4 2.16,-2.11 3.32,-2.11z"/>
   <path id="_12_16" class="fil5" d="M1963.61 602.72c-1.28,0 -2.45,-0.17 -3.5,-0.52 -7.47,-2.1 -11.2,-6.31 -11.2,-12.61 0,-8.16 5.13,-17.62 15.4,-28.35 10.27,-10.74 19.49,-16.11 27.65,-16.11 2.69,0 4.88,0.73 6.57,2.19 1.69,1.46 2.54,3.24 2.54,5.34 0,6.54 -4.93,12.78 -14.79,18.73 -9.86,5.95 -17.89,8.93 -24.07,8.93 -0.93,0 -1.75,-0.12 -2.45,-0.35 -1.75,3.15 -2.63,6.47 -2.63,9.97 0,6.07 2.89,9.1 8.67,9.1 5.77,0 13.27,-3.9 22.49,-11.72 7.12,-5.72 13.18,-11.79 18.2,-18.21 1.05,-1.4 1.96,-2.1 2.72,-2.1 0.75,0 1.13,0.35 1.13,1.05 0,0.7 -0.46,1.7 -1.4,2.98 -6.3,8.29 -13.88,15.64 -22.75,22.05 -8.87,6.42 -16.4,9.63 -22.58,9.63zm33.08 -50.41c0,-1.4 -1.49,-2.1 -4.46,-2.1 -2.98,0 -7.21,2.28 -12.69,6.83 -7.35,6.07 -13.07,12.42 -17.15,19.08 0.69,0.23 1.45,0.35 2.27,0.35 4.43,0 10.36,-2.37 17.77,-7.09 7.41,-4.73 12.04,-9.89 13.91,-15.49 0.23,-0.59 0.35,-1.11 0.35,-1.58z"/>
   <path id="_13_17" class="fil5" d="M2031.87 597.82c-3.38,1.98 -7.55,2.98 -12.51,2.98 -4.96,0 -8.75,-1.64 -11.38,-4.91 -2.63,-3.26 -4.87,-8.46 -6.74,-15.57 -2.1,2.1 -3.56,3.15 -4.37,3.15 -0.59,0 -0.88,-0.41 -0.88,-1.23 0,-0.81 0.29,-1.52 0.88,-2.1 3.85,-4.78 10.38,-11.67 19.6,-20.65l22.05 -20.66c6.31,-5.95 10.04,-8.92 11.21,-8.92 3.73,0 5.6,1.4 5.6,4.2 0,1.4 -0.56,2.77 -1.67,4.11 -1.11,1.34 -1.92,2.39 -2.45,3.15 -0.52,0.76 -1.08,1.49 -1.66,2.19 -2.1,3.62 -4.23,11.08 -6.39,22.4 -2.16,11.32 -3.82,19.2 -4.99,23.63 9.69,-0.11 19.67,-6.42 29.93,-18.9 1.17,-1.17 2.05,-1.75 2.63,-1.75 0.58,0 0.87,0.38 0.87,1.14 0,0.76 -0.52,1.78 -1.57,3.06 -6.77,7.93 -13.07,13.48 -18.9,16.63 -3.5,1.75 -8.06,3.21 -13.66,4.37l-5.6 3.68zm-23.63 -19.43c0,3.97 1.32,7.21 3.94,9.72 2.63,2.5 5.57,3.76 8.84,3.76 3.27,0 5.78,-0.64 7.53,-1.93 2.33,-1.28 4.63,-6.65 6.91,-16.1 2.28,-9.45 3.65,-17.79 4.11,-25.03l0.7 -5.95c-6.41,4.78 -13.27,10.97 -20.56,18.55 -7.3,7.59 -11.06,12.61 -11.29,15.06 -0.12,0.7 -0.18,1.34 -0.18,1.92z"/>
   <path id="_14" class="fil5" d="M2084.56 589.42c1.75,0 3.41,0.58 4.99,1.75 1.57,1.17 2.36,2.48 2.36,3.94 0,1.46 -0.73,2.74 -2.19,3.85 -1.46,1.11 -3.06,1.66 -4.81,1.66 -1.75,0 -3.36,-0.61 -4.82,-1.84 -1.45,-1.22 -2.18,-2.65 -2.18,-4.29 0,-3.38 2.21,-5.07 6.65,-5.07z"/>
   <path id="_15" class="fil5" d="M2124.11 589.42c1.76,0 3.42,0.58 4.99,1.75 1.58,1.17 2.37,2.48 2.37,3.94 0,1.46 -0.73,2.74 -2.19,3.85 -1.46,1.11 -3.07,1.66 -4.82,1.66 -1.75,0 -3.35,-0.61 -4.81,-1.84 -1.46,-1.22 -2.19,-2.65 -2.19,-4.29 0,-3.38 2.22,-5.07 6.65,-5.07z"/>
   <path id="_16" class="fil5" d="M2163.67 589.42c1.75,0 3.42,0.58 4.99,1.75 1.58,1.17 2.36,2.48 2.36,3.94 0,1.46 -0.73,2.74 -2.18,3.85 -1.46,1.11 -3.07,1.66 -4.82,1.66 -1.75,0 -3.35,-0.61 -4.81,-1.84 -1.46,-1.22 -2.19,-2.65 -2.19,-4.29 0,-3.38 2.22,-5.07 6.65,-5.07z"/>
  </g>
 </g>
</svg>
